<svg height="601pt" viewBox="-71 -19 601 601.335" width="601pt" xmlns="http://www.w3.org/2000/svg"><path d="M370.195 349.598c-1.41-.059-2.808-.211-4.234-.211-50.563-1.34-92.79 38.242-94.707 88.785-1.926 50.539 37.176 93.223 87.691 95.723 50.516 2.503 93.64-36.102 96.723-86.59 3.082-50.48-35.031-94.047-85.473-97.707zm-17.144 136.617c-3.895 3.894-10.215 3.894-14.113 0l-34.63-34.63-15.285-15.28 14.118-14.118 42.851 42.856 72.805-72.8 14.113 14.112zm0 0"/><path d="M365.96 329.422c4.981.035 9.946.414 14.876 1.125a654.378 654.378 0 006.789-12.863l-5.445-2.797c22.355-43.582 33.691-79.004 33.691-105.254C415.871 93.855 322.02 0 206.238 0 90.465 0-3.39 93.855-3.39 209.633c0 103.758 171.45 309.566 209.63 354.117 10.046-11.703 29.288-34.52 52.034-63.5l6.555 5.14a2032.54 2032.54 0 007.207-9.55c-20.547-33.871-21.215-76.195-1.742-110.7 19.473-34.5 56.047-55.808 95.668-55.718zm-159.722 19.965c-82.695 0-149.734-67.04-149.734-149.739 0-82.695 67.039-149.734 149.734-149.734 82.703 0 149.739 67.04 149.739 149.734-.094 82.66-67.075 149.645-149.739 149.739zm0 0"/><path d="M206.238 69.879c-71.668 0-129.77 58.098-129.77 129.77 0 71.671 58.102 129.773 129.77 129.773 71.672 0 129.774-58.102 129.774-129.774-.082-71.636-58.137-129.687-129.774-129.77zm-29.945 139.754h-19.965v-19.965h19.965zm49.91 0h-39.93v-19.965h39.93zm29.95 0h-19.966v-19.965h19.965zm0 0"/></svg>